HIERARCHY
ROOT Hips
{
	OFFSET 0.000000 88.474243 0.000000
	CHANNELS 6 Xposition Yposition Zposition Zrotation Yrotation Xrotation 
	JOINT Hips_Spine
	{
		OFFSET 0.000000 0.000000 0.000000
		CHANNELS 3 Zrotation Yrotation Xrotation
		JOINT Spine
		{
			OFFSET 0.005100 8.711998 -0.691000
			CHANNELS 3 Zrotation Yrotation Xrotation
			JOINT Spine1
			{
				OFFSET -0.009200 8.660301 -1.275000
				CHANNELS 3 Zrotation Yrotation Xrotation
				JOINT Spine2
				{
					OFFSET 0.006300 9.852501 -1.857000
					CHANNELS 3 Zrotation Yrotation Xrotation
					JOINT Spine2_Neck
					{
						OFFSET 0.000000 0.000000 0.000000
						CHANNELS 3 Zrotation Yrotation Xrotation
						JOINT Neck
						{
							OFFSET 0.016300 11.420799 -0.263300
							CHANNELS 3 Zrotation Yrotation Xrotation
							End Site #name: Head
							{
								OFFSET -0.019200 9.262405 2.362500
							}
						}
					}
					JOINT Spine2_LeftShoulder
					{
						OFFSET 0.000000 0.000000 0.000000
						CHANNELS 3 Zrotation Yrotation Xrotation
						JOINT LeftShoulder
						{
							OFFSET 5.616900 6.732201 -0.345700
							CHANNELS 3 Zrotation Yrotation Xrotation
							JOINT LeftArm
							{
								OFFSET 10.664888 -0.183372 -2.440700
								CHANNELS 3 Zrotation Yrotation Xrotation
								JOINT LeftForeArm
								{
									OFFSET 27.459126 0.000000 0.000000
									CHANNELS 3 Zrotation Yrotation Xrotation
									End Site #name: LeftHand
									{
										OFFSET 21.306858 0.000000 0.000000
									}
								}
							}
						}
					}
					JOINT Spine2_RightShoulder
					{
						OFFSET 0.000000 0.000000 0.000000
						CHANNELS 3 Zrotation Yrotation Xrotation
						JOINT RightShoulder
						{
							OFFSET -5.580300 6.737503 -0.344400
							CHANNELS 3 Zrotation Yrotation Xrotation
							JOINT RightArm
							{
								OFFSET -10.679335 -0.188484 -2.383900
								CHANNELS 3 Zrotation Yrotation Xrotation
								JOINT RightForeArm
								{
									OFFSET -27.503529 0.000000 0.000000
									CHANNELS 3 Zrotation Yrotation Xrotation
									End Site #name: RightHand
									{
										OFFSET -21.306808 0.000000 0.000000
									}
								}
							}
						}
					}
				}
			}
		}
	}
	JOINT Hips_LeftUpLeg
	{
		OFFSET 0.000000 0.000000 0.000000
		CHANNELS 3 Zrotation Yrotation Xrotation
		JOINT LeftUpLeg
		{
			OFFSET 6.857700 -6.739601 0.312100
			CHANNELS 3 Zrotation Yrotation Xrotation
			JOINT LeftLeg
			{
				OFFSET -0.367590 -34.731552 -4.572400
				CHANNELS 3 Zrotation Yrotation Xrotation
				End Site #name: LeftFoot
				{
					OFFSET 0.367590 -34.656704 -6.067400
				}
			}
		}
	}
	JOINT Hips_RightUpLeg
	{
		OFFSET 0.000000 0.000000 0.000000
		CHANNELS 3 Zrotation Yrotation Xrotation
		JOINT RightUpLeg
		{
			OFFSET -6.876100 -6.733299 0.301000
			CHANNELS 3 Zrotation Yrotation Xrotation
			JOINT RightLeg
			{
				OFFSET 0.347353 -34.795158 -4.515900
				CHANNELS 3 Zrotation Yrotation Xrotation
				End Site #name: RightFoot
				{
					OFFSET -0.347353 -34.589367 -6.070300
				}
			}
		}
	}
}
MOTION
Frames: 18
Frame Time: 0.041667
5.443478 0.768846 1.767460 -3.980277 -9.583555 -0.943880 -0.000000 -0.000000 0.000000 -0.259053 0.597512 4.278957 -0.820669 1.283912 8.707876 0.000000 0.000000 0.000000 -0.859188 1.214962 8.680187 1.280975 -2.351648 3.171671 -0.821173 1.282278 8.676008 3.188027 0.828491 0.448308 -74.506554 -11.059186 26.587670 -179.348598 -86.211090 179.127055 -0.801463 1.236890 8.529220 -3.674325 -1.598444 1.086125 78.560395 -8.991552 4.197436 -174.716517 83.596447 -175.023616 -0.000000 -0.000000 -0.000000 1.417184 1.290786 -20.488651 -0.949052 0.486442 29.101468 0.000000 0.000000 -0.000000 -7.965574 0.356036 -16.060753 0.263300 -0.680386 19.181793 
5.624485 0.812521 1.810135 -3.918432 -9.759139 -0.981076 -0.000000 -0.000000 0.000000 -0.256719 0.612690 4.242221 -0.793222 1.272091 8.639705 0.000000 0.000000 0.000000 -0.842533 1.206748 8.604089 1.069844 -2.629489 3.223354 -0.797289 1.271370 8.597474 3.155489 0.791909 0.445257 -74.605289 -10.602912 26.338708 -179.535623 -86.230166 179.312432 -0.778801 1.224607 8.457451 -3.631010 -1.583094 1.069971 78.716284 -9.167336 3.954738 -174.479845 83.600766 -174.797148 -0.000000 -0.000000 -0.000000 1.207662 1.236347 -20.290490 -0.913169 0.462624 28.653306 0.000000 0.000000 -0.000000 -8.141502 0.567805 -15.872252 0.260616 -0.695265 18.757782 
5.791458 0.851650 1.845667 -3.872848 -9.897430 -1.025256 -0.000000 -0.000000 0.000000 -0.251984 0.617903 4.217336 -0.765924 1.265364 8.584738 0.000000 0.000000 0.000000 -0.824370 1.198329 8.521198 0.966555 -2.805847 3.314328 -0.775147 1.263202 8.526234 3.139339 0.761903 0.443873 -74.716013 -10.173457 26.109567 -179.797898 -86.249312 179.570952 -0.759359 1.216875 8.397716 -3.609562 -1.561746 1.056239 78.886293 -9.334929 3.758597 -174.253376 83.579476 -174.584883 -0.000000 -0.000000 -0.000000 1.030485 1.201889 -20.113594 -0.885299 0.452590 28.254179 0.000000 0.000000 -0.000000 -8.294821 0.755539 -15.669039 0.260913 -0.735070 18.324389 
5.944484 0.887061 1.873134 -3.850781 -9.983895 -1.071947 -0.000000 -0.000000 0.000000 -0.242394 0.620515 4.206414 -0.742010 1.260556 8.530830 0.000000 0.000000 0.000000 -0.806706 1.193963 8.446056 0.887851 -2.929875 3.407324 -0.756301 1.259629 8.462060 3.140655 0.751103 0.443521 -74.807472 -9.791541 25.923596 179.897919 -86.270436 179.870267 -0.742145 1.213347 8.348451 -3.594885 -1.529468 1.048658 79.033917 -9.487910 3.598366 -174.056008 83.550550 -174.404098 -0.000000 -0.000000 -0.000000 0.883074 1.194191 -19.942558 -0.864321 0.452827 27.910885 0.000000 0.000000 -0.000000 -8.413711 0.925179 -15.476104 0.261447 -0.766004 17.967144 
6.084684 0.916550 1.892158 -3.852045 -10.067792 -1.110011 -0.000000 -0.000000 0.000000 -0.234818 0.614930 4.206132 -0.720509 1.257653 8.480561 0.000000 0.000000 0.000000 -0.790132 1.192255 8.373389 0.827066 -3.025866 3.466884 -0.738906 1.258108 8.404785 3.154650 0.747192 0.446075 -74.900200 -9.446550 25.764485 179.582808 -86.271030 -179.819703 -0.727200 1.214446 8.308164 -3.592945 -1.487075 1.043933 79.168018 -9.604892 3.486531 -173.931905 83.482355 -174.299454 -0.000000 -0.000000 -0.000000 0.761585 1.217110 -19.767710 -0.850791 0.456503 27.618382 0.000000 -0.000000 -0.000000 -8.504376 1.076574 -15.318671 0.269342 -0.773134 17.729115 
6.205121 0.938217 1.901460 -3.867260 -10.169233 -1.135501 -0.000000 -0.000000 -0.000000 -0.228065 0.606541 4.210259 -0.702204 1.258739 8.433872 0.000000 0.000000 0.000000 -0.774266 1.194588 8.310311 0.785457 -3.085409 3.484942 -0.724235 1.258141 8.356474 3.176972 0.754429 0.448499 -74.977486 -9.153317 25.633648 179.198185 -86.296049 -179.440835 -0.714980 1.219325 8.274409 -3.587986 -1.430710 1.037996 79.230384 -9.697385 3.421789 -173.869502 83.400953 -174.256322 -0.000000 -0.000000 -0.000000 0.659030 1.276808 -19.600472 -0.840997 0.465390 27.363415 -0.000000 -0.000000 -0.000000 -8.592684 1.190164 -15.222735 0.279804 -0.770883 17.592551 
6.298106 0.950891 1.900912 -3.897581 -10.285839 -1.141465 -0.000000 -0.000000 -0.000000 -0.224103 0.598105 4.204909 -0.686549 1.261510 8.388963 0.000000 0.000000 0.000000 -0.759741 1.200233 8.258723 0.763733 -3.109743 3.471268 -0.711672 1.260716 8.318389 3.196128 0.775042 0.450402 -75.047979 -8.909834 25.531562 178.782756 -86.348630 -179.030753 -0.704641 1.228700 8.242113 -3.576977 -1.378561 1.026495 79.237470 -9.746035 3.419810 -173.903238 83.302753 -174.309366 -0.000000 -0.000000 -0.000000 0.557694 1.358426 -19.480824 -0.842285 0.470099 27.201598 -0.000000 -0.000000 -0.000000 -8.690355 1.245115 -15.168873 0.284892 -0.767153 17.545026 
6.356110 0.955069 1.893165 -3.915718 -10.422298 -1.141835 -0.000000 -0.000000 -0.000000 -0.222788 0.590399 4.188835 -0.672541 1.267967 8.351088 0.000000 0.000000 0.000000 -0.744017 1.209278 8.216622 0.762689 -3.105172 3.431901 -0.700086 1.265504 8.289377 3.219763 0.806293 0.450967 -75.097108 -8.714282 25.463304 178.326025 -86.431344 -178.577874 -0.695263 1.241556 8.215090 -3.562707 -1.351158 1.013223 79.190800 -9.749871 3.472370 -173.998802 83.215941 -174.422420 -0.000000 -0.000000 -0.000000 0.470853 1.437650 -19.400072 -0.850130 0.482334 27.136236 -0.000000 -0.000000 -0.000000 -8.796283 1.243902 -15.149394 0.289071 -0.762515 17.549715 
6.371675 0.952897 1.882681 -3.923729 -10.561390 -1.123796 -0.000000 -0.000000 -0.000000 -0.220646 0.580777 4.171537 -0.660507 1.276354 8.321010 0.000000 0.000000 0.000000 -0.727538 1.220008 8.187938 0.786406 -3.075928 3.371539 -0.689934 1.271705 8.268366 3.245406 0.838706 0.450087 -75.114454 -8.558503 25.417325 177.847159 -86.523644 -178.101057 -0.685667 1.256721 8.192900 -3.552872 -1.332359 0.999100 79.106947 -9.701032 3.576734 -174.181050 83.126093 -174.619801 -0.000000 -0.000000 -0.000000 0.393148 1.502711 -19.379494 -0.858061 0.489851 27.193430 -0.000000 -0.000000 -0.000000 -8.899379 1.194496 -15.155477 0.297552 -0.747564 17.590308 
6.339268 0.945211 1.870061 -3.876853 -10.675982 -1.089810 -0.000000 -0.000000 -0.000000 -0.218968 0.569050 4.159085 -0.650885 1.284052 8.295438 0.000000 0.000000 0.000000 -0.711800 1.229017 8.167307 0.834218 -3.022790 3.290905 -0.681162 1.278208 8.254458 3.262295 0.867406 0.448297 -75.132088 -8.433327 25.392615 177.308959 -86.643890 -177.563757 -0.676857 1.271160 8.175122 -3.553929 -1.339771 0.989363 79.010496 -9.634256 3.686707 -174.349253 83.095273 -174.797669 -0.000000 -0.000000 -0.000000 0.335837 1.556108 -19.404743 -0.867768 0.498058 27.320971 -0.000000 -0.000000 -0.000000 -8.985495 1.120520 -15.193861 0.311533 -0.725702 17.669419 
6.252340 0.933365 1.856400 -3.776910 -10.764482 -1.043219 -0.000000 -0.000000 -0.000000 -0.216037 0.561573 4.152279 -0.643407 1.291574 8.273819 0.000000 0.000000 0.000000 -0.695366 1.236502 8.149127 0.905718 -2.944650 3.184707 -0.673721 1.284492 8.244201 3.270631 0.877036 0.447000 -75.124934 -8.329596 25.420863 176.666717 -86.815172 -176.921616 -0.669104 1.284723 8.166146 -3.563594 -1.347123 0.984617 78.903415 -9.590014 3.783197 -174.521406 83.107250 -174.976160 0.000000 0.000000 -0.000000 0.296162 1.594294 -19.456908 -0.880635 0.500899 27.474982 -0.000000 -0.000000 -0.000000 -9.054636 1.030149 -15.257568 0.322841 -0.708073 17.761134 
6.104139 0.920922 1.846399 -3.617259 -10.832952 -1.002374 -0.000000 -0.000000 -0.000000 -0.212710 0.555965 4.149610 -0.638387 1.298645 8.253490 0.000000 0.000000 0.000000 -0.679702 1.246025 8.140891 0.993638 -2.844735 3.065119 -0.667416 1.289946 8.237915 3.274113 0.867307 0.445357 -75.126308 -8.233024 25.471392 175.821296 -87.042944 -176.079983 -0.660888 1.295579 8.165971 -3.596051 -1.377989 0.985269 78.807813 -9.572069 3.882813 -174.677505 83.147825 -175.129223 0.000000 0.000000 -0.000000 0.283221 1.625055 -19.496760 -0.898486 0.496879 27.609859 -0.000000 -0.000000 -0.000000 -9.101203 0.937129 -15.304852 0.329424 -0.689148 17.859434 
5.887987 0.912590 1.846407 -3.400595 -10.836868 -0.989171 -0.000000 -0.000000 -0.000000 -0.207245 0.555295 4.136304 -0.634980 1.303946 8.227555 0.000000 0.000000 0.000000 -0.662600 1.255667 8.131534 1.091348 -2.722005 2.940096 -0.660032 1.294552 8.229763 3.268028 0.840379 0.442786 -75.133966 -8.137930 25.525555 174.642378 -87.327615 -174.903380 -0.652242 1.303253 8.170627 -3.638760 -1.404534 0.995302 78.714347 -9.638183 3.972003 -174.808783 83.194210 -175.248878 0.000000 0.000000 -0.000000 0.291993 1.646466 -19.495965 -0.912306 0.489188 27.695708 -0.000000 -0.000000 -0.000000 -9.111152 0.856065 -15.322832 0.330043 -0.668120 17.985822 
5.603199 0.912615 1.860945 -3.147445 -10.770287 -1.019920 -0.000000 -0.000000 -0.000000 -0.199569 0.560452 4.119502 -0.631189 1.307606 8.191309 0.000000 0.000000 0.000000 -0.645320 1.269193 8.114557 1.186101 -2.574947 2.810504 -0.651017 1.299852 8.217225 3.261910 0.821190 0.441416 -75.148116 -8.011678 25.544148 173.101944 -87.604165 -173.366678 -0.643129 1.309168 8.171649 -3.715407 -1.425180 1.006320 78.622066 -9.796519 4.064990 -174.936556 83.214325 -175.354820 0.000000 0.000000 -0.000000 0.330317 1.655891 -19.389163 -0.917671 0.482028 27.664524 -0.000000 -0.000000 -0.000000 -9.064318 0.798049 -15.282195 0.320218 -0.657107 18.082748 
5.250605 0.925014 1.892468 -2.862839 -10.629542 -1.105983 -0.000000 -0.000000 -0.000000 -0.187665 0.575411 4.103567 -0.624158 1.309291 8.142143 0.000000 0.000000 0.000000 -0.628158 1.285509 8.082925 1.268679 -2.416387 2.692181 -0.640624 1.305053 8.193389 3.256950 0.817923 0.444742 -75.159899 -7.863037 25.492106 171.282294 -87.878954 -171.546497 -0.633157 1.312784 8.164791 -3.792466 -1.426731 1.022777 78.502458 -10.041146 4.138196 -175.021792 83.196151 -175.410096 0.000000 0.000000 -0.000000 0.393926 1.650748 -19.156895 -0.915271 0.479914 27.502015 -0.000000 0.000000 -0.000000 -8.944267 0.777697 -15.151915 0.307467 -0.646535 18.101044 
4.830930 0.950648 1.940346 -2.564821 -10.430048 -1.234800 -0.000000 -0.000000 -0.000000 -0.176018 0.595836 4.090208 -0.610773 1.305523 8.075318 0.000000 0.000000 0.000000 -0.606152 1.306455 8.043118 1.331876 -2.253627 2.583318 -0.627150 1.307037 8.154314 3.244436 0.837209 0.449257 -75.161240 -7.676818 25.379994 168.960896 -88.155733 -169.226407 -0.621113 1.314729 8.147582 -3.871107 -1.438520 1.036510 78.373395 -10.319361 4.185181 -175.080713 83.142508 -175.431281 0.000000 0.000000 -0.000000 0.482942 1.623261 -18.821234 -0.896680 0.487461 27.203621 -0.000000 0.000000 -0.000000 -8.728563 0.797130 -14.931504 0.311655 -0.626922 18.036602 
4.344352 0.988438 2.002537 -2.254619 -10.175718 -1.390787 -0.000000 -0.000000 -0.000000 -0.169410 0.623963 4.061727 -0.588285 1.295899 7.989019 0.000000 0.000000 0.000000 -0.580693 1.330345 7.991159 1.373939 -2.098834 2.492933 -0.608916 1.306383 8.098193 3.219324 0.869796 0.455208 -75.196763 -7.410910 25.198342 165.085372 -88.515620 -165.348274 -0.605977 1.314719 8.115829 -3.937728 -1.470999 1.043277 78.244829 -10.577225 4.222312 -175.078761 83.090430 -175.394777 0.000000 0.000000 -0.000000 0.593118 1.572859 -18.388773 -0.865293 0.499275 26.760839 -0.000000 0.000000 0.000000 -8.457674 0.833298 -14.640175 0.321359 -0.606232 17.920473 
3.803183 1.036421 2.075936 -1.983664 -9.910619 -1.553156 -0.000000 0.000000 -0.000000 -0.170539 0.651001 4.011065 -0.558616 1.281713 7.885265 0.000000 0.000000 0.000000 -0.552260 1.345811 7.920149 1.396164 -1.982752 2.405753 -0.586154 1.302223 8.026366 3.183583 0.891492 0.463739 -75.259619 -7.069106 25.018074 158.887709 -88.879506 -159.138627 -0.583605 1.308562 8.070132 -3.961571 -1.535515 1.046055 78.108296 -10.783756 4.297796 -175.031892 83.047462 -175.325516 0.000000 0.000000 -0.000000 0.730166 1.511264 -17.866904 -0.814885 0.515619 26.156207 0.000000 0.000000 0.000000 -8.172588 0.821512 -14.322907 0.315344 -0.606050 17.768442 
